<?xml version="1.0" encoding="UTF-8" standalone="no"?>
<!DOCTYPE svg PUBLIC "-//W3C//DTD SVG 1.1//EN" "http://www.w3.org/Graphics/SVG/1.1/DTD/svg11.dtd">
<svg width="100%" height="100%" viewBox="0 0 2000 2000" version="1.1" xmlns="http://www.w3.org/2000/svg" xmlns:xlink="http://www.w3.org/1999/xlink" xml:space="preserve" xmlns:serif="http://www.serif.com/" style="fill-rule:evenodd;clip-rule:evenodd;stroke-linejoin:round;stroke-miterlimit:2;">
    <g transform="matrix(1.76237,0,0,1.764942,-762.369554,-879.663238)">
        <rect x="432.582" y="498.409" width="1134.836" height="1133.182" style="fill:white;fill-opacity:0.24;"/>
    </g>
    <g transform="matrix(0.933598,0,0,0.935436,538.775692,578.775693)">
        <g id="Logo">
            <path d="M267.118,1.003C258.599,2.823 256.022,4.602 209.126,41.029C114.66,114.408 29.168,184.005 15.511,198.645C5.165,209.734 3.144,215.287 1.44,237.284C-0.514,262.474 -0.467,336.309 1.507,346.717C4.904,364.62 14.25,375.949 36.275,388.865C49.715,396.749 159.865,455.55 243.726,499.609C271.164,514.027 294.52,526.532 295.625,527.4C298.788,529.882 297.965,545.094 293.474,567.189C291.226,578.248 288.973,594.987 288.466,604.386C287.217,627.547 289.94,635.924 313.746,682.201C324.213,702.549 350.662,755.752 372.518,800.429C424.207,906.084 453.113,961.706 460.068,968.893C463.108,972.033 469.626,976.49 474.552,978.8C482.009,982.295 485.804,983 497.19,983C508.624,983 512.361,982.3 519.958,978.741C537.406,970.564 533.79,976.095 639.209,796.408C715.245,666.802 731.523,640.075 745.5,621.88C765.39,595.991 807.097,544.848 875.371,462.634C909.535,421.495 946.866,376.402 958.331,362.429C977.935,338.534 984.768,325.942 986.691,318.668C989.211,309.138 987.643,299.469 986.756,294.395C985.629,287.95 976.569,271.417 970.059,265.539C966.438,262.269 960.128,258.047 956.036,256.155C948.918,252.866 946.187,252.71 892.642,252.526L836.687,252.335L827.466,245.833C811.918,234.869 741.129,166.916 715.087,137.956C699.305,120.403 698.975,118.954 707.224,103.415C722.445,74.746 720.555,50.364 701.648,31.465C687.063,16.886 682.57,16.047 594.552,11.433C419.604,2.263 281.787,-2.127 267.118,1.003ZM451.325,103.944C416.691,108.398 361.008,129.953 330.035,150.896C305.001,167.823 269.405,203.695 252.313,229.222C227.72,265.95 211.115,310.56 205.03,356.25C201.142,385.446 202.547,417.361 208.569,436.609C210.893,444.036 212.436,445.974 220.244,451.266C233.602,460.319 310.986,502.847 314.103,502.847C314.58,502.847 315.449,499.006 316.036,494.312C318.234,476.72 330.995,458.303 346.249,450.705C353.169,447.257 356.833,446.548 367.701,446.548C379.114,446.548 382.085,447.187 390.711,451.496C401.706,456.988 409.76,465.619 415.48,478.044C420.991,490.014 420.718,511.545 414.899,523.952C405.652,543.661 390.408,554.421 370.06,555.598C358.638,556.259 357.036,555.92 344.521,550.202C333.896,545.347 330.895,544.544 329.828,546.272C327.686,549.737 320.103,590.962 319.176,604.186C318.466,614.323 318.832,617.038 321.464,621.19C325.51,627.568 337.85,635.685 361.523,647.533C443.422,688.532 533.064,689.142 615.557,649.263C646.834,634.142 666.861,619.773 692.824,593.829C710.357,576.307 718.441,566.731 728.703,551.326C765.505,496.074 779.23,445.895 776.722,375.772C775.571,343.614 772.772,327.013 764.164,301.267C748.523,254.493 723.544,215.192 688.205,181.764C644.777,140.682 586.936,112.257 533.399,105.688C513.325,103.225 464.912,102.197 451.325,103.944ZM326.827,227.621C312.456,228.803 309.704,230.468 307.932,239.045C306.501,245.968 304.773,247.771 298.292,249.092C291.295,250.52 287.981,253.863 287.981,259.499C287.981,263.63 293.052,266.39 300.638,266.39C305.946,266.39 308.902,269.025 308.902,273.754C308.902,278.974 306.108,280.32 292.819,281.499C285.934,282.112 279.788,283.541 278.498,284.831C275.347,287.98 273.705,299.641 273.594,319.688L273.498,336.792L262.635,337.91C244.126,339.813 238.217,341.809 236.868,346.612C235.307,352.165 235.43,425.885 237.017,435.547C238.47,444.396 239.411,444.92 255.997,446.104L268.267,446.981L269.058,458.001C269.491,464.062 270.805,470.176 271.978,471.588C274.454,474.569 289.253,482.211 298.102,485.078C305.853,487.587 307.132,486.578 314.873,471.854C322.406,457.526 333.656,445.98 345.481,440.442C353.443,436.713 356.833,436.097 369.251,436.123C381.913,436.15 384.805,436.713 392.241,440.603C408.994,449.365 419.982,463.682 426.312,484.996C428.792,493.344 429.342,493.979 435.311,495.364C438.808,496.175 477.582,496.925 521.476,497.028C585.284,497.179 601.797,496.793 603.843,495.102C605.249,493.938 607.19,489.305 608.156,484.806C612.245,465.749 625.789,448.757 643.636,440.291C651.151,436.726 654.674,436.094 666.971,436.107C679.731,436.12 682.486,436.664 690.117,440.666C707.165,449.609 722.002,468.071 724.963,484.026C726.621,492.952 729.259,494.805 740.308,494.805L749.849,494.805L749.849,478.679C749.849,463.208 749.695,462.495 746.045,461.109C740.916,459.159 740.202,456.651 740.144,440.384C740.031,408.67 735.06,392.038 724.101,386.704C716.93,383.213 688.728,377.66 639.049,369.955L599.865,363.88L581.665,326.796C571.657,306.401 561.924,288.086 560.038,286.095C557.553,283.472 554.743,282.468 549.832,282.444C537.989,282.389 520.792,279.272 517.902,276.656C513.864,273.005 515.645,270.392 524.756,266.607C532.582,263.357 532.781,263.107 532.292,257.189C531.811,251.362 531.489,251.054 524.548,249.78C520.565,249.05 515.678,248.132 513.685,247.739C510.879,247.187 510.064,245.925 510.064,242.125C510.064,234.892 507.528,231.371 500.792,229.247C493.944,227.089 349.669,225.741 326.827,227.621ZM328.278,268.726C325.502,272.069 326.82,276.457 331.262,278.672C338.082,282.07 369.677,282.81 427.058,280.916C479.581,279.18 495.846,277.92 498.376,275.393C498.946,274.822 498.312,273.256 496.966,271.911C492.813,267.761 469.18,266.448 398.012,266.419C340.686,266.395 329.918,266.751 328.278,268.726ZM328.653,299.924C307.747,301.462 308.098,300.942 308.098,330.39C308.098,362.106 308.186,362.358 319.767,363.92C331.534,365.508 418.238,365.495 428.388,363.904C439.051,362.234 439.851,360.106 439.938,333.145C440.021,307.325 439.144,302.567 434.043,301.161C428.557,299.649 345.638,298.676 328.653,299.924ZM481.662,299.715L474.986,300.339L473.884,323.177C473.279,335.737 473.025,350.357 473.319,355.665L473.855,365.316L482.706,365.86C496.886,366.732 572.196,364.287 574.472,362.881C576.913,361.374 574.394,354.59 558.951,321.081L548.943,299.366L518.64,299.227C501.974,299.152 485.334,299.37 481.662,299.715ZM645.403,450.19C635.137,455.403 624.736,466.197 619.804,476.757C616.094,484.7 615.507,488.047 615.507,501.239C615.507,514.313 616.109,517.809 619.675,525.441C625.219,537.303 632.72,545.558 642.686,550.766C649.661,554.413 652.912,555.055 664.581,555.087C676.871,555.122 679.396,554.578 689.081,549.817C706.112,541.445 715.108,528.451 717.107,509.338C719.966,481.997 705.27,455.463 683.728,449.069C670.992,445.289 654.082,445.782 645.403,450.19Z"/>
        </g>
    </g>
</svg>
