<?xml version="1.0" encoding="UTF-8" standalone="no"?>
<!DOCTYPE svg PUBLIC "-//W3C//DTD SVG 1.1//EN" "http://www.w3.org/Graphics/SVG/1.1/DTD/svg11.dtd">
<svg width="100%" height="100%" viewBox="0 0 2000 700" version="1.1" xmlns="http://www.w3.org/2000/svg" xmlns:xlink="http://www.w3.org/1999/xlink" xml:space="preserve" xmlns:serif="http://www.serif.com/" style="fill-rule:evenodd;clip-rule:evenodd;stroke-linejoin:round;stroke-miterlimit:2;">
    <g id="LOGO">
        <g transform="matrix(5.105407,0,0,5.105407,-7566.850447,-12203.696269)">
            <path d="M1631.932,2455.191C1631.932,2457.867 1631.387,2460.229 1630.298,2462.277C1629.209,2464.325 1627.693,2465.924 1625.752,2467.072C1623.81,2468.221 1621.561,2468.795 1619.003,2468.795C1616.47,2468.795 1614.238,2468.221 1612.308,2467.072C1610.378,2465.924 1608.875,2464.331 1607.798,2462.295C1606.72,2460.259 1606.181,2457.903 1606.181,2455.227C1606.181,2452.551 1606.726,2450.189 1607.815,2448.141C1608.904,2446.093 1610.414,2444.495 1612.344,2443.346C1614.274,2442.198 1616.505,2441.624 1619.039,2441.624C1621.596,2441.624 1623.84,2442.198 1625.77,2443.346C1627.699,2444.495 1629.209,2446.087 1630.298,2448.123C1631.387,2450.16 1631.932,2452.516 1631.932,2455.191ZM1625.858,2455.191C1625.858,2453.51 1625.586,2452.072 1625.041,2450.876C1624.497,2449.68 1623.721,2448.763 1622.715,2448.123C1621.709,2447.484 1620.495,2447.164 1619.074,2447.164C1617.654,2447.164 1616.434,2447.484 1615.416,2448.123C1614.398,2448.763 1613.617,2449.68 1613.072,2450.876C1612.527,2452.072 1612.255,2453.51 1612.255,2455.191C1612.255,2456.873 1612.527,2458.317 1613.072,2459.525C1613.617,2460.732 1614.398,2461.656 1615.416,2462.295C1616.434,2462.934 1617.654,2463.254 1619.074,2463.254C1620.495,2463.254 1621.709,2462.928 1622.715,2462.277C1623.721,2461.626 1624.497,2460.697 1625.041,2459.489C1625.586,2458.282 1625.858,2456.849 1625.858,2455.191Z" style="fill-rule:nonzero;"/>
        </g>
        <g transform="matrix(5.105407,0,0,5.105407,-7566.850447,-12203.696269)">
            <path d="M1641.984,2468.369L1632.145,2442.085L1638.29,2442.085L1643.262,2455.369C1643.57,2456.174 1643.854,2457.015 1644.115,2457.891C1644.375,2458.767 1644.647,2459.773 1644.932,2460.91C1645.263,2459.655 1645.565,2458.613 1645.837,2457.784C1646.11,2456.956 1646.388,2456.15 1646.672,2455.369L1651.573,2442.085L1657.576,2442.085L1647.915,2468.369L1641.984,2468.369Z" style="fill-rule:nonzero;"/>
        </g>
        <g transform="matrix(5.105407,0,0,5.105407,-7566.850447,-12203.696269)">
            <path d="M1677.359,2468.369L1660.666,2468.369L1660.666,2442.085L1677.359,2442.085L1677.359,2447.413L1666.42,2447.413L1666.42,2452.563L1676.116,2452.563L1676.116,2457.607L1666.42,2457.607L1666.42,2463.041L1677.359,2463.041L1677.359,2468.369Z" style="fill-rule:nonzero;"/>
        </g>
        <g transform="matrix(5.105407,0,0,5.105407,-7566.850447,-12203.696269)">
            <path d="M1687.837,2468.369L1682.083,2468.369L1682.083,2442.085L1692.241,2442.085C1695.438,2442.085 1697.907,2442.825 1699.647,2444.305C1701.387,2445.785 1702.257,2447.887 1702.257,2450.61C1702.257,2452.314 1701.896,2453.771 1701.174,2454.978C1700.452,2456.186 1699.357,2457.169 1697.889,2457.926L1702.506,2468.369L1696.219,2468.369L1692.277,2459.169L1687.837,2459.169L1687.837,2468.369ZM1687.837,2447.2L1687.837,2454.126L1692.206,2454.126C1693.461,2454.126 1694.438,2453.818 1695.136,2453.202C1695.835,2452.587 1696.184,2451.723 1696.184,2450.61C1696.184,2449.497 1695.846,2448.65 1695.172,2448.07C1694.497,2447.49 1693.52,2447.2 1692.241,2447.2L1687.837,2447.2Z" style="fill-rule:nonzero;"/>
        </g>
        <g transform="matrix(5.105407,0,0,5.105407,-7566.850447,-12203.696269)">
            <path d="M1712.274,2442.085L1712.274,2468.369L1706.52,2468.369L1706.52,2442.085L1712.274,2442.085ZM1707.55,2468.369L1707.55,2463.041L1722.645,2463.041L1722.645,2468.369L1707.55,2468.369Z" style="fill-rule:nonzero;"/>
        </g>
        <g transform="matrix(5.105407,0,0,5.105407,-7566.850447,-12203.696269)">
            <path d="M1730.565,2468.369L1724.563,2468.369L1733.939,2442.085L1739.551,2442.085L1748.893,2468.369L1742.783,2468.369L1740.936,2462.828L1732.448,2462.828L1730.565,2468.369ZM1736,2452.386L1734.117,2457.997L1739.303,2457.997L1737.42,2452.386C1737.278,2451.936 1737.136,2451.474 1736.994,2451C1736.852,2450.527 1736.757,2450.136 1736.71,2449.828C1736.663,2450.136 1736.574,2450.521 1736.443,2450.983C1736.313,2451.444 1736.165,2451.912 1736,2452.386Z" style="fill-rule:nonzero;"/>
        </g>
        <g transform="matrix(5.105407,0,0,5.105407,-7566.850447,-12203.696269)">
            <path d="M1757.63,2468.369L1751.947,2468.369L1751.947,2442.085L1757.63,2442.085L1768.712,2458.8L1768.712,2442.085L1774.394,2442.085L1774.394,2468.369L1768.712,2468.369L1757.63,2451.685L1757.63,2468.369Z" style="fill-rule:nonzero;"/>
        </g>
        <g transform="matrix(5.105407,0,0,5.105407,-7566.850447,-12203.696269)">
            <path d="M1790.164,2468.369L1779.864,2468.369L1779.864,2442.085L1789.809,2442.085C1792.39,2442.085 1794.657,2442.642 1796.611,2443.755C1798.564,2444.868 1800.098,2446.419 1801.21,2448.408C1802.323,2450.397 1802.88,2452.693 1802.88,2455.298C1802.88,2457.855 1802.341,2460.117 1801.264,2462.082C1800.186,2464.047 1798.695,2465.586 1796.788,2466.699C1794.882,2467.812 1792.674,2468.369 1790.164,2468.369ZM1785.618,2447.413L1785.618,2463.041L1789.596,2463.041C1791.111,2463.041 1792.408,2462.733 1793.485,2462.117C1794.563,2461.502 1795.385,2460.614 1795.954,2459.454C1796.522,2458.293 1796.806,2456.908 1796.806,2455.298C1796.806,2453.64 1796.504,2452.226 1795.901,2451.054C1795.297,2449.882 1794.432,2448.982 1793.308,2448.354C1792.183,2447.727 1790.827,2447.413 1789.241,2447.413L1785.618,2447.413Z" style="fill-rule:nonzero;"/>
        </g>
        <g transform="matrix(5.105407,0,0,5.105407,-7566.850447,-12203.696269)">
            <path d="M1823.587,2468.369L1806.893,2468.369L1806.893,2442.085L1823.587,2442.085L1823.587,2447.413L1812.647,2447.413L1812.647,2452.563L1822.344,2452.563L1822.344,2457.607L1812.647,2457.607L1812.647,2463.041L1823.587,2463.041L1823.587,2468.369Z" style="fill-rule:nonzero;"/>
        </g>
        <g transform="matrix(5.105407,0,0,5.105407,-7566.850447,-12203.696269)">
            <path d="M1834.065,2468.369L1828.311,2468.369L1828.311,2442.085L1838.469,2442.085C1841.665,2442.085 1844.134,2442.825 1845.874,2444.305C1847.615,2445.785 1848.485,2447.887 1848.485,2450.61C1848.485,2452.314 1848.124,2453.771 1847.402,2454.978C1846.679,2456.186 1845.584,2457.169 1844.116,2457.926L1848.733,2468.369L1842.447,2468.369L1838.504,2459.169L1834.065,2459.169L1834.065,2468.369ZM1834.065,2447.2L1834.065,2454.126L1838.433,2454.126C1839.688,2454.126 1840.665,2453.818 1841.363,2453.202C1842.062,2452.587 1842.411,2451.723 1842.411,2450.61C1842.411,2449.497 1842.074,2448.65 1841.399,2448.07C1840.724,2447.49 1839.747,2447.2 1838.469,2447.2L1834.065,2447.2Z" style="fill-rule:nonzero;"/>
        </g>
        <g transform="matrix(2.03086,0,0,2.03086,-2615.523677,-4799.672415)">
            <path d="M1606.288,2449.658C1606.288,2448.135 1606.679,2446.795 1607.462,2445.635C1608.244,2444.476 1609.33,2443.569 1610.719,2442.913C1612.108,2442.257 1613.706,2441.929 1615.512,2441.929C1617.271,2441.929 1618.797,2442.237 1620.088,2442.854C1621.38,2443.471 1622.386,2444.348 1623.107,2445.485C1623.828,2446.621 1624.214,2447.972 1624.263,2449.537L1619.728,2449.537C1619.678,2448.422 1619.275,2447.55 1618.519,2446.921C1617.762,2446.292 1616.743,2445.978 1615.462,2445.978C1614.068,2445.978 1612.947,2446.294 1612.099,2446.926C1611.251,2447.559 1610.827,2448.419 1610.827,2449.509C1610.827,2450.434 1611.085,2451.165 1611.6,2451.702C1612.115,2452.238 1612.912,2452.63 1613.992,2452.876L1618.094,2453.788C1620.304,2454.262 1621.955,2455.076 1623.049,2456.23C1624.143,2457.385 1624.69,2458.933 1624.69,2460.874C1624.69,2462.47 1624.297,2463.868 1623.511,2465.067C1622.725,2466.267 1621.619,2467.192 1620.193,2467.843C1618.768,2468.494 1617.098,2468.82 1615.185,2468.82C1613.357,2468.82 1611.752,2468.51 1610.371,2467.889C1608.989,2467.269 1607.914,2466.388 1607.146,2465.247C1606.377,2464.105 1605.972,2462.767 1605.929,2461.233L1610.476,2461.233C1610.497,2462.329 1610.927,2463.191 1611.767,2463.819C1612.606,2464.446 1613.754,2464.76 1615.21,2464.76C1616.726,2464.76 1617.928,2464.446 1618.817,2463.819C1619.706,2463.191 1620.151,2462.346 1620.151,2461.283C1620.151,2460.393 1619.912,2459.684 1619.435,2459.157C1618.958,2458.63 1618.189,2458.252 1617.128,2458.022L1613.008,2457.12C1610.799,2456.646 1609.127,2455.784 1607.991,2454.532C1606.856,2453.281 1606.288,2451.656 1606.288,2449.658Z" style="fill-rule:nonzero;"/>
        </g>
        <g transform="matrix(2.03086,0,0,2.03086,-2615.523677,-4799.672415)">
            <path d="M1652.465,2455.362C1652.465,2458.002 1651.931,2460.332 1650.863,2462.352C1649.795,2464.372 1648.313,2465.951 1646.418,2467.088C1644.523,2468.226 1642.328,2468.795 1639.835,2468.795C1637.365,2468.795 1635.185,2468.226 1633.294,2467.088C1631.404,2465.951 1629.93,2464.376 1628.874,2462.364C1627.818,2460.353 1627.29,2458.027 1627.29,2455.387C1627.29,2452.747 1627.824,2450.417 1628.892,2448.397C1629.96,2446.377 1631.437,2444.798 1633.324,2443.661C1635.211,2442.523 1637.39,2441.954 1639.859,2441.954C1642.353,2441.954 1644.543,2442.523 1646.43,2443.661C1648.318,2444.798 1649.795,2446.373 1650.863,2448.384C1651.931,2450.396 1652.465,2452.722 1652.465,2455.362ZM1647.691,2455.362C1647.691,2453.51 1647.371,2451.91 1646.73,2450.562C1646.09,2449.213 1645.188,2448.17 1644.026,2447.431C1642.863,2446.692 1641.483,2446.323 1639.884,2446.323C1638.293,2446.323 1636.912,2446.692 1635.741,2447.431C1634.57,2448.17 1633.665,2449.213 1633.024,2450.562C1632.383,2451.91 1632.063,2453.51 1632.063,2455.362C1632.063,2457.207 1632.383,2458.809 1633.024,2460.169C1633.665,2461.529 1634.57,2462.579 1635.741,2463.318C1636.912,2464.057 1638.293,2464.426 1639.884,2464.426C1641.483,2464.426 1642.863,2464.053 1644.026,2463.306C1645.188,2462.559 1646.09,2461.505 1646.73,2460.145C1647.371,2458.784 1647.691,2457.19 1647.691,2455.362Z" style="fill-rule:nonzero;"/>
        </g>
        <g transform="matrix(2.03086,0,0,2.03086,-2615.523677,-4799.672415)">
            <path d="M1656.535,2458.889L1656.535,2442.405L1661.075,2442.405L1661.075,2458.605C1661.075,2460.475 1661.571,2461.907 1662.564,2462.901C1663.558,2463.894 1664.973,2464.391 1666.811,2464.391C1668.651,2464.391 1670.07,2463.886 1671.068,2462.876C1672.066,2461.866 1672.565,2460.442 1672.565,2458.605L1672.565,2442.405L1677.104,2442.405L1677.104,2458.889C1677.104,2460.909 1676.686,2462.658 1675.852,2464.137C1675.017,2465.615 1673.827,2466.761 1672.282,2467.575C1670.737,2468.388 1668.913,2468.795 1666.811,2468.795C1664.717,2468.795 1662.901,2468.394 1661.36,2467.592C1659.82,2466.791 1658.631,2465.645 1657.793,2464.154C1656.955,2462.664 1656.535,2460.909 1656.535,2458.889Z" style="fill-rule:nonzero;"/>
        </g>
        <g transform="matrix(2.03086,0,0,2.03086,-2615.523677,-4799.672415)">
            <path d="M1692.54,2444.557L1692.54,2468.369L1688.001,2468.369L1688.001,2444.557L1692.54,2444.557ZM1680.403,2446.603L1680.403,2442.405L1700.137,2442.405L1700.137,2446.603L1680.403,2446.603Z" style="fill-rule:nonzero;"/>
        </g>
        <g transform="matrix(2.03086,0,0,2.03086,-2615.523677,-4799.672415)">
            <path d="M1708.154,2468.369L1703.615,2468.369L1703.615,2442.405L1708.154,2442.405L1708.154,2453.149L1719.665,2453.149L1719.665,2442.405L1724.204,2442.405L1724.204,2468.369L1719.665,2468.369L1719.665,2457.347L1708.154,2457.347L1708.154,2468.369Z" style="fill-rule:nonzero;"/>
        </g>
        <g transform="matrix(2.03086,0,0,2.03086,-2615.523677,-4799.672415)">
            <path d="M1746.09,2468.369L1729.951,2468.369L1729.951,2442.405L1746.08,2442.405L1746.08,2446.603L1734.49,2446.603L1734.49,2453.277L1744.858,2453.277L1744.858,2457.276L1734.49,2457.276L1734.49,2464.17L1746.09,2464.17L1746.09,2468.369Z" style="fill-rule:nonzero;"/>
        </g>
        <g transform="matrix(2.03086,0,0,2.03086,-2615.523677,-4799.672415)">
            <path d="M1755.535,2468.369L1750.996,2468.369L1750.996,2442.405L1760.898,2442.405C1763.853,2442.405 1766.151,2443.115 1767.792,2444.534C1769.433,2445.954 1770.253,2447.94 1770.253,2450.493C1770.253,2452.24 1769.855,2453.723 1769.058,2454.941C1768.261,2456.159 1767.097,2457.087 1765.565,2457.724L1770.491,2468.369L1765.515,2468.369L1761.104,2458.658L1755.535,2458.658L1755.535,2468.369ZM1755.535,2446.454L1755.535,2454.659L1760.894,2454.659C1762.341,2454.659 1763.467,2454.292 1764.272,2453.559C1765.077,2452.826 1765.48,2451.811 1765.48,2450.514C1765.48,2449.195 1765.078,2448.188 1764.276,2447.495C1763.473,2446.801 1762.347,2446.454 1760.898,2446.454L1755.535,2446.454Z" style="fill-rule:nonzero;"/>
        </g>
        <g transform="matrix(2.03086,0,0,2.03086,-2615.523677,-4799.672415)">
            <path d="M1779.271,2468.369L1774.782,2468.369L1774.782,2442.405L1779.282,2442.405L1791.471,2460.809L1791.471,2442.405L1795.961,2442.405L1795.961,2468.369L1791.471,2468.369L1779.271,2449.97L1779.271,2468.369Z" style="fill-rule:nonzero;"/>
        </g>
        <g transform="matrix(2.03086,0,0,2.03086,-2615.523677,-4799.672415)">
            <path d="M1813.503,2468.369L1808.79,2468.369L1818.156,2442.405L1822.841,2442.405L1832.214,2468.369L1827.416,2468.369L1825.324,2462.369L1815.61,2462.369L1813.503,2468.369ZM1819.907,2450.158L1816.949,2458.52L1824.01,2458.52L1821.03,2450.158C1820.923,2449.808 1820.813,2449.451 1820.699,2449.088C1820.586,2448.724 1820.509,2448.42 1820.468,2448.177C1820.428,2448.413 1820.357,2448.713 1820.255,2449.075C1820.154,2449.438 1820.037,2449.799 1819.907,2450.158Z" style="fill-rule:nonzero;"/>
        </g>
        <g transform="matrix(2.03086,0,0,2.03086,-2615.523677,-4799.672415)">
            <path d="M1840.011,2442.405L1840.011,2468.369L1835.472,2468.369L1835.472,2442.405L1840.011,2442.405ZM1851.529,2446.603L1835.844,2446.603L1835.844,2442.405L1851.529,2442.405L1851.529,2446.603ZM1849.693,2457.752L1835.745,2457.752L1835.745,2453.654L1849.693,2453.654L1849.693,2457.752Z" style="fill-rule:nonzero;"/>
        </g>
        <g transform="matrix(2.03086,0,0,2.03086,-2615.523677,-4799.672415)">
            <path d="M1860.16,2468.369L1855.621,2468.369L1855.621,2442.405L1865.523,2442.405C1868.478,2442.405 1870.776,2443.115 1872.417,2444.534C1874.058,2445.954 1874.878,2447.94 1874.878,2450.493C1874.878,2452.24 1874.48,2453.723 1873.683,2454.941C1872.886,2456.159 1871.722,2457.087 1870.19,2457.724L1875.116,2468.369L1870.14,2468.369L1865.729,2458.658L1860.16,2458.658L1860.16,2468.369ZM1860.16,2446.454L1860.16,2454.659L1865.519,2454.659C1866.966,2454.659 1868.092,2454.292 1868.897,2453.559C1869.702,2452.826 1870.105,2451.811 1870.105,2450.514C1870.105,2449.195 1869.704,2448.188 1868.901,2447.495C1868.098,2446.801 1866.972,2446.454 1865.523,2446.454L1860.16,2446.454Z" style="fill-rule:nonzero;"/>
        </g>
        <g transform="matrix(2.03086,0,0,2.03086,-2615.523677,-4799.672415)">
            <rect x="1879.407" y="2442.405" width="4.539" height="25.964" style="fill-rule:nonzero;"/>
        </g>
        <g transform="matrix(2.03086,0,0,2.03086,-2615.523677,-4799.672415)">
            <path d="M1900.675,2468.784C1898.146,2468.784 1895.948,2468.234 1894.079,2467.133C1892.211,2466.032 1890.763,2464.479 1889.736,2462.476C1888.708,2460.473 1888.194,2458.118 1888.194,2455.412C1888.194,2452.715 1888.725,2450.36 1889.785,2448.349C1890.846,2446.338 1892.333,2444.773 1894.245,2443.655C1896.157,2442.538 1898.372,2441.979 1900.892,2441.979C1902.952,2441.979 1904.8,2442.356 1906.434,2443.11C1908.069,2443.864 1909.417,2444.926 1910.478,2446.296C1911.539,2447.666 1912.214,2449.28 1912.502,2451.139L1907.686,2451.139C1907.251,2449.621 1906.423,2448.443 1905.204,2447.605C1903.984,2446.767 1902.503,2446.347 1900.76,2446.347C1899.176,2446.347 1897.798,2446.715 1896.626,2447.45C1895.454,2448.185 1894.551,2449.227 1893.918,2450.576C1893.284,2451.924 1892.968,2453.528 1892.968,2455.387C1892.968,2457.205 1893.288,2458.795 1893.93,2460.155C1894.572,2461.515 1895.479,2462.566 1896.651,2463.306C1897.823,2464.046 1899.193,2464.416 1900.76,2464.416C1902.52,2464.416 1904.031,2463.991 1905.294,2463.142C1906.558,2462.293 1907.402,2461.143 1907.829,2459.692L1912.57,2459.692C1912.234,2461.505 1911.518,2463.097 1910.421,2464.465C1909.325,2465.834 1907.942,2466.896 1906.271,2467.651C1904.6,2468.407 1902.735,2468.784 1900.675,2468.784Z" style="fill-rule:nonzero;"/>
        </g>
        <g transform="matrix(2.03086,0,0,2.03086,-2615.523677,-4799.672415)">
            <path d="M1917.798,2468.369L1913.085,2468.369L1922.451,2442.405L1927.136,2442.405L1936.509,2468.369L1931.711,2468.369L1929.619,2462.369L1919.905,2462.369L1917.798,2468.369ZM1924.202,2450.158L1921.244,2458.52L1928.305,2458.52L1925.325,2450.158C1925.218,2449.808 1925.108,2449.451 1924.994,2449.088C1924.881,2448.724 1924.804,2448.42 1924.763,2448.177C1924.723,2448.413 1924.652,2448.713 1924.55,2449.075C1924.449,2449.438 1924.332,2449.799 1924.202,2450.158Z" style="fill-rule:nonzero;"/>
        </g>
        <g transform="matrix(5.057305,0,0,5.057305,-7487.653886,-11920.370285)">
            <path d="M1606.193,2449.555C1606.193,2447.954 1606.611,2446.539 1607.447,2445.308C1608.283,2444.078 1609.436,2443.11 1610.905,2442.405C1612.375,2441.701 1614.053,2441.348 1615.94,2441.348C1617.852,2441.348 1619.5,2441.683 1620.886,2442.352C1622.271,2443.021 1623.34,2443.964 1624.093,2445.183C1624.846,2446.401 1625.222,2447.847 1625.222,2449.519L1619.452,2449.519C1619.452,2448.587 1619.13,2447.852 1618.485,2447.315C1617.84,2446.777 1616.968,2446.509 1615.869,2446.509C1614.698,2446.509 1613.76,2446.759 1613.055,2447.261C1612.351,2447.763 1611.998,2448.456 1611.998,2449.34C1611.998,2450.152 1612.213,2450.773 1612.643,2451.203C1613.073,2451.633 1613.754,2451.944 1614.686,2452.135L1618.664,2452.959C1621.029,2453.437 1622.785,2454.267 1623.932,2455.45C1625.078,2456.632 1625.652,2458.275 1625.652,2460.377C1625.652,2462.073 1625.234,2463.561 1624.398,2464.839C1623.561,2466.117 1622.385,2467.102 1620.868,2467.795C1619.351,2468.488 1617.577,2468.834 1615.546,2468.834C1613.587,2468.834 1611.873,2468.5 1610.404,2467.831C1608.934,2467.162 1607.8,2466.212 1606.999,2464.982C1606.199,2463.752 1605.799,2462.312 1605.799,2460.664L1611.568,2460.664C1611.568,2461.619 1611.915,2462.36 1612.608,2462.886C1613.3,2463.411 1614.292,2463.674 1615.582,2463.674C1616.896,2463.674 1617.935,2463.429 1618.7,2462.939C1619.464,2462.45 1619.846,2461.787 1619.846,2460.951C1619.846,2460.21 1619.661,2459.637 1619.291,2459.23C1618.921,2458.824 1618.294,2458.538 1617.41,2458.37L1613.36,2457.546C1610.995,2457.068 1609.209,2456.16 1608.003,2454.823C1606.796,2453.485 1606.193,2451.729 1606.193,2449.555Z" style="fill-rule:nonzero;"/>
        </g>
        <g transform="matrix(5.057305,0,0,5.057305,-7487.653886,-11920.370285)">
            <path d="M1634.611,2447.225L1640.416,2447.225L1640.416,2468.369L1634.611,2468.369L1634.611,2447.225ZM1627.085,2447.225L1627.085,2441.85L1647.942,2441.85L1647.942,2447.225L1627.085,2447.225Z" style="fill-rule:nonzero;"/>
        </g>
        <g transform="matrix(5.057305,0,0,5.057305,-7487.653886,-11920.370285)">
            <path d="M1674.855,2455.073C1674.855,2457.773 1674.305,2460.156 1673.206,2462.223C1672.107,2464.289 1670.578,2465.902 1668.619,2467.061C1666.66,2468.219 1664.391,2468.799 1661.81,2468.799C1659.254,2468.799 1657.002,2468.219 1655.055,2467.061C1653.108,2465.902 1651.591,2464.295 1650.504,2462.241C1649.417,2460.186 1648.874,2457.809 1648.874,2455.109C1648.874,2452.41 1649.423,2450.027 1650.522,2447.96C1651.621,2445.893 1653.144,2444.281 1655.091,2443.122C1657.038,2441.963 1659.29,2441.384 1661.846,2441.384C1664.426,2441.384 1666.69,2441.963 1668.637,2443.122C1670.584,2444.281 1672.107,2445.887 1673.206,2447.942C1674.305,2449.997 1674.855,2452.374 1674.855,2455.073ZM1668.727,2455.073C1668.727,2453.377 1668.452,2451.926 1667.902,2450.719C1667.353,2449.513 1666.571,2448.587 1665.555,2447.942C1664.54,2447.297 1663.315,2446.975 1661.882,2446.975C1660.449,2446.975 1659.218,2447.297 1658.191,2447.942C1657.164,2448.587 1656.375,2449.513 1655.826,2450.719C1655.276,2451.926 1655.002,2453.377 1655.002,2455.073C1655.002,2456.77 1655.276,2458.227 1655.826,2459.445C1656.375,2460.664 1657.164,2461.596 1658.191,2462.241C1659.218,2462.886 1660.449,2463.208 1661.882,2463.208C1663.315,2463.208 1664.54,2462.88 1665.555,2462.223C1666.571,2461.566 1667.353,2460.628 1667.902,2459.41C1668.452,2458.191 1668.727,2456.746 1668.727,2455.073Z" style="fill-rule:nonzero;"/>
        </g>
        <g transform="matrix(5.057305,0,0,5.057305,-7487.653886,-11920.370285)">
            <path d="M1684.71,2468.369L1678.904,2468.369L1678.904,2441.85L1689.153,2441.85C1692.378,2441.85 1694.869,2442.597 1696.625,2444.09C1698.381,2445.583 1699.259,2447.703 1699.259,2450.451C1699.259,2452.171 1698.895,2453.64 1698.166,2454.858C1697.437,2456.077 1696.332,2457.068 1694.851,2457.833L1699.51,2468.369L1693.167,2468.369L1689.189,2459.087L1684.71,2459.087L1684.71,2468.369ZM1684.71,2447.01L1684.71,2453.998L1689.117,2453.998C1690.384,2453.998 1691.369,2453.688 1692.074,2453.067C1692.779,2452.445 1693.131,2451.573 1693.131,2450.451C1693.131,2449.328 1692.791,2448.474 1692.11,2447.888C1691.429,2447.303 1690.443,2447.01 1689.153,2447.01L1684.71,2447.01Z" style="fill-rule:nonzero;"/>
        </g>
        <g transform="matrix(5.057305,0,0,5.057305,-7487.653886,-11920.370285)">
            <path d="M1707.179,2468.369L1701.122,2468.369L1710.583,2441.85L1716.245,2441.85L1725.67,2468.369L1719.506,2468.369L1717.643,2462.778L1709.078,2462.778L1707.179,2468.369ZM1712.662,2452.242L1710.762,2457.904L1715.994,2457.904L1714.095,2452.242C1713.952,2451.788 1713.808,2451.323 1713.665,2450.845C1713.522,2450.367 1713.426,2449.973 1713.378,2449.662C1713.331,2449.973 1713.241,2450.361 1713.11,2450.827C1712.978,2451.293 1712.829,2451.765 1712.662,2452.242Z" style="fill-rule:nonzero;"/>
        </g>
        <g transform="matrix(5.057305,0,0,5.057305,-7487.653886,-11920.370285)">
            <path d="M1739.252,2446.867C1737.651,2446.867 1736.313,2447.219 1735.238,2447.924C1734.163,2448.629 1733.351,2449.614 1732.801,2450.881C1732.252,2452.147 1731.977,2453.64 1731.977,2455.36C1731.977,2457.128 1732.288,2458.609 1732.909,2459.804C1733.53,2460.998 1734.384,2461.888 1735.471,2462.474C1736.558,2463.059 1737.807,2463.352 1739.216,2463.352C1740.411,2463.352 1741.426,2463.196 1742.262,2462.886C1743.098,2462.575 1743.773,2462.145 1744.287,2461.596C1744.801,2461.046 1745.183,2460.425 1745.434,2459.732C1745.684,2459.039 1746.111,2458.227 1745.778,2458.227L1738.75,2458.227L1738.75,2453.138L1751.221,2453.138L1751.221,2468.369L1746.24,2468.369L1745.934,2465.992C1745.934,2465.992 1745.446,2466.589 1744.645,2467.114C1743.845,2467.64 1742.913,2468.046 1741.85,2468.333C1740.787,2468.619 1739.658,2468.763 1738.464,2468.763C1736.003,2468.763 1733.823,2468.195 1731.923,2467.061C1730.024,2465.926 1728.537,2464.343 1727.462,2462.312C1726.387,2460.282 1725.849,2457.904 1725.849,2455.181C1725.849,2452.505 1726.411,2450.134 1727.534,2448.068C1728.656,2446.001 1730.233,2444.376 1732.264,2443.194C1734.295,2442.011 1736.672,2441.42 1739.395,2441.42C1741.522,2441.42 1743.439,2441.808 1745.147,2442.585C1746.855,2443.361 1748.247,2444.46 1749.322,2445.882C1750.397,2447.303 1751.03,2448.969 1751.221,2450.881L1745.129,2450.881C1744.795,2449.471 1744.078,2448.45 1742.979,2447.817C1741.88,2447.184 1740.638,2446.867 1739.252,2446.867Z" style="fill-rule:nonzero;"/>
        </g>
        <g transform="matrix(5.057305,0,0,5.057305,-7487.653886,-11920.370285)">
            <path d="M1773.941,2468.369L1757.098,2468.369L1757.098,2441.85L1773.941,2441.85L1773.941,2447.225L1762.904,2447.225L1762.904,2452.422L1772.687,2452.422L1772.687,2457.51L1762.904,2457.51L1762.904,2462.993L1773.941,2462.993L1773.941,2468.369Z" style="fill-rule:nonzero;"/>
        </g>
        <g transform="matrix(0.447249,0,0,0.447249,128.313345,128.313346)">
            <path d="M267.118,1.003C258.599,2.823 256.022,4.602 209.126,41.029C114.66,114.408 29.168,184.005 15.511,198.645C5.165,209.734 3.144,215.287 1.44,237.284C-0.514,262.474 -0.467,336.309 1.507,346.717C4.904,364.62 14.25,375.949 36.275,388.865C49.715,396.749 159.865,455.55 243.726,499.609C271.164,514.027 294.52,526.532 295.625,527.4C298.788,529.882 297.965,545.094 293.474,567.189C291.226,578.248 288.973,594.987 288.466,604.386C287.217,627.547 289.94,635.924 313.746,682.201C324.213,702.549 350.662,755.752 372.518,800.429C424.207,906.084 453.113,961.706 460.068,968.893C463.108,972.033 469.626,976.49 474.552,978.8C482.009,982.295 485.804,983 497.19,983C508.624,983 512.361,982.3 519.958,978.741C537.406,970.564 533.79,976.095 639.209,796.408C715.245,666.802 731.523,640.075 745.5,621.88C765.39,595.991 807.097,544.848 875.371,462.634C909.535,421.495 946.866,376.402 958.331,362.429C977.935,338.534 984.768,325.942 986.691,318.668C989.211,309.138 987.643,299.469 986.756,294.395C985.629,287.95 976.569,271.417 970.059,265.539C966.438,262.269 960.128,258.047 956.036,256.155C948.918,252.866 946.187,252.71 892.642,252.526L836.687,252.335L827.466,245.833C811.918,234.869 741.129,166.916 715.087,137.956C699.305,120.403 698.975,118.954 707.224,103.415C722.445,74.746 720.555,50.364 701.648,31.465C687.063,16.886 682.57,16.047 594.552,11.433C419.604,2.263 281.787,-2.127 267.118,1.003ZM451.325,103.944C416.691,108.398 361.008,129.953 330.035,150.896C305.001,167.823 269.405,203.695 252.313,229.222C227.72,265.95 211.115,310.56 205.03,356.25C201.142,385.446 202.547,417.361 208.569,436.609C210.893,444.036 212.436,445.974 220.244,451.266C233.602,460.319 310.986,502.847 314.103,502.847C314.58,502.847 315.449,499.006 316.036,494.312C318.234,476.72 330.995,458.303 346.249,450.705C353.169,447.257 356.833,446.548 367.701,446.548C379.114,446.548 382.085,447.187 390.711,451.496C401.706,456.988 409.76,465.619 415.48,478.044C420.991,490.014 420.718,511.545 414.899,523.952C405.652,543.661 390.408,554.421 370.06,555.598C358.638,556.259 357.036,555.92 344.521,550.202C333.896,545.347 330.895,544.544 329.828,546.272C327.686,549.737 320.103,590.962 319.176,604.186C318.466,614.323 318.832,617.038 321.464,621.19C325.51,627.568 337.85,635.685 361.523,647.533C443.422,688.532 533.064,689.142 615.557,649.263C646.834,634.142 666.861,619.773 692.824,593.829C710.357,576.307 718.441,566.731 728.703,551.326C765.505,496.074 779.23,445.895 776.722,375.772C775.571,343.614 772.772,327.013 764.164,301.267C748.523,254.493 723.544,215.192 688.205,181.764C644.777,140.682 586.936,112.257 533.399,105.688C513.325,103.225 464.912,102.197 451.325,103.944ZM326.827,227.621C312.456,228.803 309.704,230.468 307.932,239.045C306.501,245.968 304.773,247.771 298.292,249.092C291.295,250.52 287.981,253.863 287.981,259.499C287.981,263.63 293.052,266.39 300.638,266.39C305.946,266.39 308.902,269.025 308.902,273.754C308.902,278.974 306.108,280.32 292.819,281.499C285.934,282.112 279.788,283.541 278.498,284.831C275.347,287.98 273.705,299.641 273.594,319.688L273.498,336.792L262.635,337.91C244.126,339.813 238.217,341.809 236.868,346.612C235.307,352.165 235.43,425.885 237.017,435.547C238.47,444.396 239.411,444.92 255.997,446.104L268.267,446.981L269.058,458.001C269.491,464.062 270.805,470.176 271.978,471.588C274.454,474.569 289.253,482.211 298.102,485.078C305.853,487.587 307.132,486.578 314.873,471.854C322.406,457.526 333.656,445.98 345.481,440.442C353.443,436.713 356.833,436.097 369.251,436.123C381.913,436.15 384.805,436.713 392.241,440.603C408.994,449.365 419.982,463.682 426.312,484.996C428.792,493.344 429.342,493.979 435.311,495.364C438.808,496.175 477.582,496.925 521.476,497.028C585.284,497.179 601.797,496.793 603.843,495.102C605.249,493.938 607.19,489.305 608.156,484.806C612.245,465.749 625.789,448.757 643.636,440.291C651.151,436.726 654.674,436.094 666.971,436.107C679.731,436.12 682.486,436.664 690.117,440.666C707.165,449.609 722.002,468.071 724.963,484.026C726.621,492.952 729.259,494.805 740.308,494.805L749.849,494.805L749.849,478.679C749.849,463.208 749.695,462.495 746.045,461.109C740.916,459.159 740.202,456.651 740.144,440.384C740.031,408.67 735.06,392.038 724.101,386.704C716.93,383.213 688.728,377.66 639.049,369.955L599.865,363.88L581.665,326.796C571.657,306.401 561.924,288.086 560.038,286.095C557.553,283.472 554.743,282.468 549.832,282.444C537.989,282.389 520.792,279.272 517.902,276.656C513.864,273.005 515.645,270.392 524.756,266.607C532.582,263.357 532.781,263.107 532.292,257.189C531.811,251.362 531.489,251.054 524.548,249.78C520.565,249.05 515.678,248.132 513.685,247.739C510.879,247.187 510.064,245.925 510.064,242.125C510.064,234.892 507.528,231.371 500.792,229.247C493.944,227.089 349.669,225.741 326.827,227.621ZM328.278,268.726C325.502,272.069 326.82,276.457 331.262,278.672C338.082,282.07 369.677,282.81 427.058,280.916C479.581,279.18 495.846,277.92 498.376,275.393C498.946,274.822 498.312,273.256 496.966,271.911C492.813,267.761 469.18,266.448 398.012,266.419C340.686,266.395 329.918,266.751 328.278,268.726ZM328.653,299.924C307.747,301.462 308.098,300.942 308.098,330.39C308.098,362.106 308.186,362.358 319.767,363.92C331.534,365.508 418.238,365.495 428.388,363.904C439.051,362.234 439.851,360.106 439.938,333.145C440.021,307.325 439.144,302.567 434.043,301.161C428.557,299.649 345.638,298.676 328.653,299.924ZM481.662,299.715L474.986,300.339L473.884,323.177C473.279,335.737 473.025,350.357 473.319,355.665L473.855,365.316L482.706,365.86C496.886,366.732 572.196,364.287 574.472,362.881C576.913,361.374 574.394,354.59 558.951,321.081L548.943,299.366L518.64,299.227C501.974,299.152 485.334,299.37 481.662,299.715ZM645.403,450.19C635.137,455.403 624.736,466.197 619.804,476.757C616.094,484.7 615.507,488.047 615.507,501.239C615.507,514.313 616.109,517.809 619.675,525.441C625.219,537.303 632.72,545.558 642.686,550.766C649.661,554.413 652.912,555.055 664.581,555.087C676.871,555.122 679.396,554.578 689.081,549.817C706.112,541.445 715.108,528.451 717.107,509.338C719.966,481.997 705.27,455.463 683.728,449.069C670.992,445.289 654.082,445.782 645.403,450.19Z"/>
        </g>
    </g>
</svg>
